<svg  viewBox="0 0 104 70" fill="none" xmlns="http://www.w3.org/2000/svg">
<path d="M0 20C0 8.9543 8.95431 0 20 0H84C95.0457 0 104 8.95431 104 20V50C104 61.0457 95.0457 70 84 70H20C8.95431 70 0 61.0457 0 50V20Z" fill="#F8D7C5"/>
<path d="M60.25 19.8748C58.5609 19.9011 56.9087 20.3726 55.4601 21.2417C54.0116 22.1108 52.818 23.3468 52 24.8248C51.1819 23.3468 49.9884 22.1108 48.5398 21.2417C47.0913 20.3726 45.4391 19.9011 43.75 19.8748C41.0574 19.9918 38.5205 21.1697 36.6937 23.1511C34.8668 25.1326 33.8984 27.7566 34 30.4498C34 37.2703 41.179 44.7193 47.2 49.7698C48.5443 50.8995 50.244 51.5188 52 51.5188C53.7559 51.5188 55.4557 50.8995 56.8 49.7698C62.821 44.7193 70 37.2703 70 30.4498C70.1016 27.7566 69.1332 25.1326 67.3063 23.1511C65.4794 21.1697 62.9426 19.9918 60.25 19.8748Z" fill="white"/>
</svg>