<svg width="30" height="21" viewBox="0 0 30 21" fill="none" xmlns="http://www.w3.org/2000/svg">
<path id="Vector" d="M15.5339 17.0747L27.5451 4.52256C27.6099 4.45482 27.6423 4.37248 27.6423 4.27553C27.6423 4.17858 27.6099 4.09623 27.5451 4.0285L26.1383 2.5584C26.0733 2.49066 25.9945 2.45679 25.9019 2.45679C25.8092 2.45679 25.7304 2.49066 25.6655 2.5584L13.6543 15.1105L15.5339 17.0747ZM6.46157 19.8086C4.31145 19.6827 2.69699 19.183 1.61819 18.3095C0.539398 17.4359 0 16.2 0 14.6017C0 13.0717 0.614458 11.8306 1.84337 10.8785C3.07229 9.92639 4.78036 9.34961 6.96759 9.14816C8.01867 9.05322 8.80699 8.85467 9.33253 8.55249C9.85783 8.25031 10.1205 7.83192 10.1205 7.29731C10.1205 6.55546 9.76506 5.98938 9.05422 5.59907C8.34337 5.20875 7.17795 4.92836 5.55795 4.75788L5.7553 2.50589C7.97771 2.72674 9.62229 3.22747 10.689 4.0081C11.7558 4.78873 12.2892 5.88513 12.2892 7.29731C12.2892 8.49621 11.8486 9.44681 10.9674 10.1491C10.0859 10.8512 8.80639 11.273 7.1288 11.4145C5.47554 11.5598 4.23554 11.8968 3.4088 12.4257C2.58205 12.9545 2.16867 13.6798 2.16867 14.6017C2.16867 15.5412 2.51301 16.2402 3.20169 16.6985C3.89036 17.1565 5.00663 17.4378 6.55048 17.5423L6.46157 19.8086ZM15.8729 19.9276L10.924 14.7558L24.4254 0.661092C24.8517 0.21563 25.3499 -0.00470823 25.92 7.62629e-05C26.4899 0.00486076 26.988 0.225199 27.4142 0.661092L29.3606 2.69476C29.7869 3.14047 30 3.66349 30 4.26382C30 4.8644 29.7869 5.38742 29.3606 5.83288L15.8729 19.9276ZM11.0436 20.9709C10.7173 21.0522 10.4301 20.9631 10.1819 20.7035C9.93349 20.4438 9.84819 20.1437 9.92602 19.803L10.924 14.7558L15.8729 19.9276L11.0436 20.9709Z" fill="#6A6A6A"/>
</svg>
