<svg width="18" height="17" viewBox="0 0 18 17" fill="none" xmlns="http://www.w3.org/2000/svg">
<g id="SVGRepo_iconCarrier">
<path id="Vector" d="M17.21 15.74L14.22 7.38C14.01 6.83 13.54 6.49 13 6.49C12.46 6.49 12 6.83 11.77 7.4L8.79 15.74C8.65 16.13 8.85 16.56 9.24 16.7C9.63 16.84 10.06 16.64 10.2 16.25L10.82 14.52H15.17L15.79 16.25C15.9 16.56 16.19 16.75 16.5 16.75C16.58 16.75 16.67 16.74 16.75 16.71C17.14 16.57 17.34 16.14 17.2 15.75L17.21 15.74ZM11.37 13.01L13.01 8.42L14.65 13.01H11.37ZM8.82 4.22C6.55999 7.79 4.52 9.95 2.04 11.39C1.92 11.46 1.79 11.49 1.67 11.49C1.41 11.49 1.16 11.36 1.02 11.12C0.81 10.76 0.93 10.3 1.29 10.1C3.38999 8.88 5.11 7.13 7.04 4.23H0.75C0.34 4.23 0 3.89 0 3.48C0 3.07 0.34 2.73 0.75 2.73H4.5V0.75C4.5 0.34 4.84 0 5.25 0C5.65999 0 6 0.34 6 0.75V2.73H9.75C10.16 2.73 10.5 3.07 10.5 3.48C10.5 3.89 10.16 4.23 9.75 4.23H8.81L8.82 4.22ZM8.86 11.49C8.73 11.49 8.6 11.46 8.48 11.39C7.83 11.01 7.2 10.59 6.60999 10.15C6.27999 9.9 6.21 9.43 6.46 9.1C6.71 8.77 7.18 8.7 7.51 8.95C8.05 9.36 8.64 9.74 9.24 10.09C9.6 10.3 9.72 10.76 9.51 11.12C9.37 11.36 9.12 11.49 8.86 11.49Z" fill="#C16D58"/>
</g>
</svg>
